<svg width="119" height="34" viewBox="0 0 119 34" fill="none" xmlns="http://www.w3.org/2000/svg">
<path d="M48.4 10.8322C48.4 11.7433 48.2 12.5531 47.9 13.3629C47.6 14.1727 47.1 14.7801 46.6 15.3874C46 15.9948 45.4 16.3997 44.6 16.8046C43.8 17.1083 43 17.3108 42.2 17.3108C41.3 17.3108 40.5 17.1083 39.7 16.8046C38.9 16.5009 38.3 15.9948 37.7 15.3874C37.1 14.7801 36.7 14.1727 36.3 13.3629C36 12.5531 35.8 11.7433 35.8 10.8322V1.3169H29.5V10.8322C29.5 12.3506 29.7 13.6666 30.2 15.0838C30.7 16.3997 31.3 17.6144 32.2 18.7279C33 19.8414 34 20.7525 35.2 21.5623C36.4 22.3721 37.7 22.8782 39 23.2832V33.3046H45.3V23.1819C46.7 22.777 48 22.2709 49.1 21.4611C50.3 20.6513 51.3 19.7402 52.1 18.6267C52.9 17.5132 53.6 16.2985 54 14.9825C54.5 13.6666 54.7 12.2494 54.7 10.731V1.3169H48.4V10.8322Z" fill="white"/>
<path d="M92.6 15.8936C92.7 15.0838 92.9 14.274 93.3 13.4641C93.8 12.2494 94.5 11.1359 95.5 10.2249C96.4 9.31383 97.5 8.60524 98.7 7.99788C99.9 7.49174 101.2 7.18806 102.6 7.18806C104 7.18806 105.3 7.49174 106.5 7.99788C107.7 8.50401 108.8 9.2126 109.7 10.2249C110.6 11.1359 111.3 12.2494 111.9 13.4641C112.2 14.274 112.4 14.9825 112.6 15.8936H118.9C118.8 14.8813 118.6 13.9703 118.4 13.0592C118 11.642 117.5 10.3261 116.8 9.11137C116.1 7.89665 115 6.78315 114 5.77088C113 4.75861 111.9 3.9488 110.7 3.24021C109.5 2.53162 108.2 2.02548 106.8 1.62058C105.4 1.11444 104 0.911987 102.5 0.911987C101 0.911987 99.6 1.11444 98.2 1.51935C96.8 1.92426 95.5 2.43039 94.3 3.13898C93.1 3.84757 92 4.75861 91 5.77088C90 6.78315 89.1 7.89665 88.4 9.11137C87.7 10.3261 87.1 11.642 86.8 13.0592C86.6 13.9703 86.4 14.8813 86.3 15.8936H92.6Z" fill="white"/>
<path d="M18.9 14.0715H6.3V1.3169H0V33.2034H6.3V20.4488H18.9V33.2034H25.2V1.3169H18.9V14.0715Z" fill="white"/>
<path d="M112.4 18.9304C112.3 19.7402 112.1 20.55 111.7 21.2586C111.2 22.4733 110.5 23.5868 109.5 24.4979C108.6 25.4089 107.5 26.1175 106.3 26.7249C105.1 27.231 103.8 27.5347 102.4 27.5347C101 27.5347 99.7 27.231 98.5 26.7249C97.3 26.2187 96.2 25.5101 95.3 24.4979C94.4 23.4856 93.7 22.4733 93.1 21.2586C92.8 20.55 92.6 19.7402 92.4 18.9304H86.1C86.2 19.8414 86.3 20.8537 86.6 21.7647C87 23.1819 87.5 24.4979 88.2 25.7126C88.9 26.9273 89.8 28.0408 90.8 29.0531C91.8 30.0654 92.9 30.9764 94.1 31.685C95.3 32.3936 96.6 32.8997 98 33.3046C99.4 33.7095 100.8 33.912 102.3 33.912C103.8 33.912 105.2 33.7095 106.6 33.3046C108 32.8997 109.3 32.3936 110.5 31.685C111.7 30.9764 112.8 30.0654 113.8 29.0531C114.8 28.0408 115.6 26.9273 116.3 25.7126C117 24.4979 117.5 23.1819 117.9 21.7647C118.2 20.8537 118.3 19.9427 118.4 18.9304H112.4Z" fill="white"/>
<path d="M82.4 7.6942C81.9 6.78315 81.2 5.87211 80.4 5.16352C79.6 4.3537 78.8 3.74634 77.9 3.13898C77 2.53162 76 2.12671 74.9 1.82303C73.8 1.51935 72.7 1.3169 71.6 1.3169H59V33.2034H65.3V26.8261H71.6C73.3 26.8261 75 26.5224 76.5 25.8138C78 25.1052 79.4 24.1942 80.5 23.0807C81.6 21.9672 82.5 20.55 83.2 19.0316C83.9 17.5132 84.2 15.7924 84.2 14.0715C84.2 12.8568 84 11.7433 83.7 10.731C83.4 9.61751 83 8.60524 82.4 7.6942ZM77.4 16.6022C77.1 17.412 76.6 18.0194 76.1 18.6267C75.5 19.2341 74.9 19.639 74.1 20.0439C73.3 20.3476 72.5 20.55 71.7 20.55H65.4V7.6942H71.7C72.6 7.6942 73.4 7.89665 74.1 8.20033C74.9 8.50401 75.5 9.01015 76.1 9.51628C76.7 10.1236 77.1 10.731 77.4 11.5408C77.7 12.3506 77.9 13.1605 77.9 13.9703C77.9 14.7801 77.7 15.7924 77.4 16.6022Z" fill="white"/>
</svg>
