<svg width="134" height="107" viewBox="0 0 134 107" fill="none" xmlns="http://www.w3.org/2000/svg">
<g opacity="0.3">
<path d="M0.331299 0.93396H133.331V105.934H0.331299V0.93396Z"/>
<path d="M25 50.1999C26.2 47.9999 21.9 43.2999 15.3 39.5999C8.7 35.8999 2.4 34.6999 1.2 36.8999C-1.19209e-06 39.0999 4.3 43.7999 10.9 47.4999C17.5 51.0999 23.8 52.3999 25 50.1999Z" fill="url(#paint0_linear_372_91)"/>
<path d="M123.6 105.6C124.8 103.4 120.5 98.6999 113.9 94.9999C107.3 91.2999 101 90.0999 99.8 92.2999C98.6 94.4999 102.9 99.1999 109.5 102.9C116 106.5 122.3 107.7 123.6 105.6Z" fill="url(#paint1_linear_372_91)"/>
</g>
<defs>
<linearGradient id="paint0_linear_372_91" x1="1.46568" y1="7.88855" x2="144.242" y2="72.4409" gradientUnits="userSpaceOnUse">
<stop stop-color="#1070FC"/>
<stop offset="0.5814" stop-color="#DF26D2"/>
<stop offset="1" stop-color="#FFBE1D"/>
</linearGradient>
<linearGradient id="paint1_linear_372_91" x1="99.7733" y1="92.201" x2="123.557" y2="105.563" gradientUnits="userSpaceOnUse">
<stop stop-color="#1070FC"/>
<stop offset="0.5814" stop-color="#DF26D2"/>
<stop offset="1" stop-color="#FFBE1D"/>
</linearGradient>
</defs>
</svg>
