<svg width="126" height="108" viewBox="0 0 126 108" fill="none" xmlns="http://www.w3.org/2000/svg">
<g opacity="0.3">
<path d="M88.1659 28.0919L98.7659 51.4919C94.5659 42.1919 79.7659 39.0919 63.7659 44.6919C46.1659 50.7919 33.7659 65.0919 36.0659 76.6919C36.2659 77.6919 36.5659 78.6919 36.9659 79.5919L26.3659 56.1919C25.9659 55.2919 25.6659 54.2919 25.4659 53.2919C23.1659 41.7919 35.5659 27.4919 53.1659 21.2919C69.2659 15.6919 83.9659 18.7919 88.1659 28.0919Z" fill="url(#paint0_linear_372_103)"/>
<path d="M49.9659 4.9919C81.3659 -6.0081 110.066 1.7919 114.066 22.2919C118.066 42.7919 95.9659 68.3919 64.5659 79.2919C33.2659 90.2919 4.56592 82.4919 0.465921 61.8919C-3.53408 41.3919 18.6659 15.8919 49.9659 4.9919ZM61.3659 62.9919C78.9659 56.8919 91.3659 42.5919 89.0659 30.9919C86.7659 19.4919 70.7659 15.0919 53.1659 21.2919C35.5659 27.3919 23.1659 41.6919 25.4659 53.2919C27.7659 64.7919 43.8659 69.0919 61.3659 62.9919Z" fill="url(#paint1_linear_372_103)"/>
<path d="M52.8659 20.5919C35.2659 26.6919 22.8659 40.9919 25.1659 52.5919C25.3659 53.7919 25.7659 54.7919 26.2659 55.8919C25.9659 55.0919 25.6659 54.1919 25.4659 53.2919C23.1659 41.7919 35.5659 27.4919 53.1659 21.2919C68.9659 15.7919 83.5659 18.7919 87.9659 27.7919C84.0659 18.1919 69.0659 14.8919 52.8659 20.5919Z" fill="white"/>
<path d="M113.766 21.5919C117.766 42.0919 95.6659 67.6919 64.2659 78.5919C36.0659 88.4919 9.86592 83.1919 2.06592 66.8919C9.46592 83.6919 35.8659 89.2919 64.5659 79.2919C95.8659 68.2919 118.066 42.7919 114.066 22.2919C113.666 20.2919 113.066 18.3919 112.166 16.6919C112.866 18.1919 113.366 19.8919 113.766 21.5919Z" fill="white"/>
<path d="M112.466 17.1919L123.066 40.5919C123.766 42.1919 124.366 43.8919 124.666 45.7919C128.666 66.2919 106.566 91.8919 75.1659 102.792C46.5659 112.792 20.2659 107.192 12.7659 90.5919L2.16592 67.1919C9.66592 83.7919 36.0659 89.2919 64.6659 79.3919C95.9659 68.3919 118.166 42.8919 114.166 22.3919C113.666 20.4919 113.166 18.7919 112.466 17.1919Z" fill="url(#paint2_linear_372_103)"/>
</g>
<defs>
<linearGradient id="paint0_linear_372_103" x1="59.3416" y1="52.4586" x2="33.5831" y2="-2.90615" gradientUnits="userSpaceOnUse">
<stop stop-color="#4910A2"/>
<stop offset="1" stop-color="#A04DDE"/>
</linearGradient>
<linearGradient id="paint1_linear_372_103" x1="-13.3424" y1="107.121" x2="117.019" y2="40.4198" gradientUnits="userSpaceOnUse">
<stop stop-color="#1070FC"/>
<stop offset="0.5814" stop-color="#DF26D2"/>
<stop offset="1" stop-color="#FFBE1D"/>
</linearGradient>
<linearGradient id="paint2_linear_372_103" x1="80.2128" y1="93.1067" x2="69.5179" y2="69.266" gradientUnits="userSpaceOnUse">
<stop stop-color="#4910A2"/>
<stop offset="1" stop-color="#A04DDE"/>
</linearGradient>
</defs>
</svg>
