<svg width="147" height="39" viewBox="0 0 147 39" fill="none" xmlns="http://www.w3.org/2000/svg">
<g opacity="0.3">
<path d="M8.9375 17.8L0.2375 2.6C0.2375 2.7 0.3375 2.7 0.3375 2.8L9.1375 18C9.0375 18 9.0375 17.9 8.9375 17.8Z" fill="black"/>
<path d="M0.3375 2.8L9.1375 18C9.0375 18 9.0375 17.9 8.9375 17.8L0.2375 2.6C0.2375 2.7 0.3375 2.8 0.3375 2.8Z" fill="#31123E"/>
<path d="M133.937 22.4L123.037 9.6C121.938 8.3 120.237 7.6 118.237 7.5C116.237 7.5 114.337 8.2 112.737 9.5L104.838 15.9C102.438 17.9 99.5375 18.9 96.5375 18.9C93.6375 18.9 91.0375 17.8 89.3375 15.8L83.8375 9.3C82.7375 8 81.0375 7.3 79.0375 7.2C77.0375 7.2 75.1375 7.9 73.5375 9.2L65.6375 15.6C63.2375 17.6 60.3375 18.6 57.3375 18.6C54.4375 18.6 51.8375 17.5 50.1375 15.5L44.6375 9C43.5375 7.7 41.8375 7 39.8375 6.9C37.8375 6.9 35.9375 7.6 34.3375 8.9L26.4375 15.3C24.0375 17.3 21.1375 18.3 18.1375 18.3C15.2375 18.3 12.6375 17.2 10.9375 15.2L0.3375 2.8L9.1375 18L20.0375 30.8C21.7375 32.8 24.2375 33.9 27.2375 33.9C30.2375 33.9 33.1375 32.8 35.5375 30.9L43.4375 24.5C45.0375 23.2 46.9375 22.5 48.9375 22.5C50.9375 22.5 52.6375 23.2 53.7375 24.6L59.2375 31.1C60.9375 33.1 63.4375 34.2 66.4375 34.2C69.3375 34.2 72.3375 33.1 74.7375 31.2L82.6375 24.8C84.2375 23.5 86.1375 22.8 88.1375 22.8C90.1375 22.8 91.8375 23.5 92.9375 24.9L98.4375 31.4C100.137 33.4 102.637 34.5 105.637 34.5C108.637 34.5 111.537 33.4 113.938 31.5L121.838 25.1C123.438 23.8 125.338 23.1 127.338 23.1C129.337 23.1 131.037 23.8 132.137 25.2L143.037 37.9L133.937 22.4Z" fill="url(#paint0_linear_372_119)"/>
<path d="M2.1375 0C2.6375 0 3.0375 0.2 3.3375 0.5L14.2375 13.2C15.3375 14.5 17.0375 15.2 19.0375 15.3C21.0375 15.3 22.9375 14.6 24.5375 13.3L32.3375 6.9C34.7375 4.9 37.6375 3.9 40.6375 3.9C43.5375 3.9 46.1375 5 47.8375 7L53.3375 13.5C54.4375 14.8 56.1375 15.5 58.1375 15.6C60.1375 15.6 62.0375 14.9 63.6375 13.6L71.5375 7.2C73.9375 5.2 76.8375 4.2 79.8375 4.2C82.8375 4.2 85.3375 5.3 87.0375 7.3L92.5375 13.8C93.6375 15.1 95.3375 15.8 97.3375 15.9C99.3375 15.9 101.238 15.2 102.838 13.9L110.737 7.5C113.137 5.5 116.037 4.5 119.037 4.5C121.938 4.5 124.537 5.6 126.237 7.6L137.138 20.3C137.738 21 137.538 22 136.638 22.7C136.238 23 135.738 23.2 135.338 23.2C134.838 23.2 134.438 23 134.138 22.7L123.037 9.6C121.938 8.3 120.237 7.6 118.237 7.5C116.237 7.5 114.337 8.2 112.737 9.5L104.838 15.9C102.438 17.9 99.5375 18.9 96.5375 18.9C93.6375 18.9 91.0375 17.8 89.3375 15.8L83.8375 9.3C82.7375 8 81.0375 7.3 79.0375 7.2C77.0375 7.2 75.1375 7.9 73.5375 9.2L65.6375 15.6C63.2375 17.6 60.3375 18.6 57.3375 18.6C54.4375 18.6 51.8375 17.5 50.1375 15.5L44.6375 9C43.5375 7.7 41.8375 7 39.8375 6.9C37.8375 6.9 35.9375 7.6 34.3375 8.9L26.4375 15.3C24.0375 17.3 21.1375 18.3 18.1375 18.3C15.2375 18.3 12.6375 17.2 10.9375 15.2L0.3375 2.8C-0.1625 2.1 0.0375 1.1 0.8375 0.5C1.2375 0.1 1.7375 0 2.1375 0Z" fill="url(#paint1_linear_372_119)"/>
<path d="M136.438 21.8C136.038 22.1 135.538 22.3 135.138 22.3C134.638 22.3 134.238 22.1 133.938 21.8L123.037 9C121.938 7.7 120.237 7 118.237 6.9C116.237 6.9 114.337 7.6 112.737 8.9L104.838 15.3C102.438 17.3 99.5375 18.3 96.5375 18.3C93.6375 18.3 91.0375 17.2 89.3375 15.2L83.8375 8.7C82.7375 7.4 81.0375 6.7 79.0375 6.6C77.0375 6.6 75.1375 7.3 73.5375 8.6L65.6375 15C63.2375 17 60.3375 18 57.3375 18C54.4375 18 51.8375 16.9 50.1375 14.9L44.6375 8.4C43.5375 7.1 41.8375 6.4 39.8375 6.3C37.8375 6.3 35.9375 7 34.3375 8.3L26.7375 15C24.3375 17 21.4375 18 18.4375 18C15.5375 18 12.9375 16.9 11.2375 14.9L0.3375 2.2C0.2375 2 0.1375 1.8 0.0375 1.6C-0.0625 2 0.0375 2.5 0.3375 2.8L11.2375 15.5C12.9375 17.5 15.4375 18.6 18.4375 18.6C21.4375 18.6 24.3375 17.5 26.7375 15.6L34.6375 9.2C36.2375 7.9 38.1375 7.2 40.1375 7.2C42.1375 7.2 43.8375 7.9 44.9375 9.3L50.4375 15.8C52.1375 17.8 54.6375 18.9 57.6375 18.9C60.5375 18.9 63.5375 17.8 65.9375 15.9L73.8375 9.5C75.4375 8.2 77.3375 7.5 79.3375 7.5C81.3375 7.5 83.0375 8.2 84.1375 9.6L89.6375 16.1C91.3375 18.1 93.8375 19.2 96.8375 19.2C99.8375 19.2 102.737 18.1 105.137 16.2L113.037 9.8C114.637 8.5 116.537 7.8 118.537 7.8C120.537 7.8 122.238 8.5 123.338 9.9L134.238 22.6C134.538 22.9 134.938 23.1 135.438 23.1C135.837 23.1 136.338 23 136.738 22.6C137.338 22.1 137.638 21.4 137.538 20.8C137.138 21.1 136.938 21.5 136.438 21.8Z" fill="white"/>
<path d="M137.138 20.3L145.938 35.5C146.337 36.2 146.038 37.1 145.338 37.7C144.938 38 144.438 38.2 144.038 38.2C143.538 38.2 143.138 38 142.838 37.7L134.038 22.5C134.338 22.8 134.738 23 135.238 23C135.637 23 136.138 22.9 136.538 22.5C137.238 21.9 137.438 20.9 137.138 20.3Z" fill="url(#paint2_linear_372_119)"/>
</g>
<defs>
<linearGradient id="paint0_linear_372_119" x1="72.6988" y1="37.3073" x2="73.1093" y2="3.70467" gradientUnits="userSpaceOnUse">
<stop stop-color="#4910A2"/>
<stop offset="1" stop-color="#A04DDE"/>
</linearGradient>
<linearGradient id="paint1_linear_372_119" x1="-0.0291389" y1="18.8487" x2="145.897" y2="18.8487" gradientUnits="userSpaceOnUse">
<stop stop-color="#1070FC"/>
<stop offset="0.5814" stop-color="#DF26D2"/>
<stop offset="1" stop-color="#FFBE1D"/>
</linearGradient>
<linearGradient id="paint2_linear_372_119" x1="148.837" y1="43.221" x2="130.604" y2="14.075" gradientUnits="userSpaceOnUse">
<stop stop-color="#1070FC"/>
<stop offset="0.5814" stop-color="#DF26D2"/>
<stop offset="1" stop-color="#FFBE1D"/>
</linearGradient>
</defs>
</svg>
