<svg width="70" height="70" viewBox="0 0 70 70" fill="none" xmlns="http://www.w3.org/2000/svg">
<path d="M60.3727 12.7468C68.0708 21.7595 72.1307 34.4303 68.8617 44.0792C65.5926 53.675 54.9945 60.249 44.2383 64.8084C33.482 69.3677 22.5675 71.9125 14.184 68.2544C5.80042 64.5433 -0.0522513 54.6293 0.000475452 45.9347C0.0532023 37.2401 6.11678 29.7649 12.0749 21.1233C18.033 12.4818 23.9384 2.67382 32.5856 0.500176C41.2328 -1.72649 52.6218 3.68113 60.3727 12.7468Z" fill="#F009BD"/>
<path d="M18.5923 18.0673C18.5923 17.8536 18.5084 17.6487 18.3591 17.4975C18.2098 17.3464 18.0073 17.2615 17.7961 17.2615C17.585 17.2615 17.3825 17.3464 17.2332 17.4975C17.0839 17.6487 17 17.8536 17 18.0673C17 18.2811 17.0839 18.486 17.2332 18.6371C17.3825 18.7883 17.585 18.8732 17.7961 18.8732C18.0073 18.8732 18.2098 18.7883 18.3591 18.6371C18.5084 18.486 18.5923 18.2811 18.5923 18.0673ZM29.0441 20.2961C29.2552 20.2961 29.4577 20.2112 29.607 20.06C29.7563 19.9089 29.8402 19.704 29.8402 19.4902C29.8402 19.2765 29.7563 19.0716 29.607 18.9204C29.4577 18.7693 29.2552 18.6844 29.0441 18.6844C28.8329 18.6844 28.6304 18.7693 28.4811 18.9204C28.3318 19.0716 28.2479 19.2765 28.2479 19.4902C28.2479 19.704 28.3318 19.9089 28.4811 20.06C28.6304 20.2112 28.8329 20.2961 29.0441 20.2961ZM50.1336 52.1269C49.9224 52.1269 49.7199 52.2118 49.5706 52.3629C49.4213 52.514 49.3375 52.719 49.3375 52.9327C49.3375 53.1464 49.4213 53.3514 49.5706 53.5025C49.7199 53.6536 49.9224 53.7385 50.1336 53.7385C50.3447 53.7385 50.5472 53.6536 50.6965 53.5025C50.8458 53.3514 50.9297 53.1464 50.9297 52.9327C50.9297 52.719 50.8458 52.514 50.6965 52.3629C50.5472 52.2118 50.3447 52.1269 50.1336 52.1269Z" fill="white"/>
<path d="M53.297 31.9423H39.2373V17.7115C39.2373 17.5228 39.1633 17.3418 39.0314 17.2084C38.8996 17.075 38.7208 17 38.5343 17H32.9105C32.724 17 32.5452 17.075 32.4134 17.2084C32.2815 17.3418 32.2075 17.5228 32.2075 17.7115V31.9423H18.1478C17.9613 31.9423 17.7825 32.0173 17.6507 32.1507C17.5189 32.2842 17.4448 32.4651 17.4448 32.6538V38.3462C17.4448 38.5349 17.5189 38.7158 17.6507 38.8493C17.7825 38.9827 17.9613 39.0577 18.1478 39.0577H32.2075V53.2885C32.2075 53.4772 32.2815 53.6582 32.4134 53.7916C32.5452 53.925 32.724 54 32.9105 54H38.5343C38.7208 54 38.8996 53.925 39.0314 53.7916C39.1633 53.6582 39.2373 53.4772 39.2373 53.2885V39.0577H53.297C53.4835 39.0577 53.6623 38.9827 53.7941 38.8493C53.9259 38.7158 54 38.5349 54 38.3462V32.6538C54 32.4651 53.9259 32.2842 53.7941 32.1507C53.6623 32.0173 53.4835 31.9423 53.297 31.9423ZM52.594 37.6346H39.2373V36.9231C39.2373 36.7344 39.1633 36.5534 39.0314 36.4199C38.8996 36.2865 38.7208 36.2115 38.5343 36.2115C38.3479 36.2115 38.1691 36.2865 38.0373 36.4199C37.9054 36.5534 37.8314 36.7344 37.8314 36.9231V52.5769H33.6135V36.9231C33.6135 36.7344 33.5394 36.5534 33.4076 36.4199C33.2757 36.2865 33.0969 36.2115 32.9105 36.2115C32.724 36.2115 32.5452 36.2865 32.4134 36.4199C32.2815 36.5534 32.2075 36.7344 32.2075 36.9231V37.6346H18.8508V33.3654H32.9105C33.0969 33.3654 33.2757 33.2904 33.4076 33.157C33.5394 33.0235 33.6135 32.8426 33.6135 32.6538V18.4231H37.8314V32.6538C37.8314 32.8426 37.9054 33.0235 38.0373 33.157C38.1691 33.2904 38.3479 33.3654 38.5343 33.3654H52.594V37.6346Z" fill="white"/>
<path d="M26.5836 30.5192C28.9094 30.5192 30.8015 28.6041 30.8015 26.25C30.8015 23.8959 28.9094 21.9808 26.5836 21.9808C24.2578 21.9808 22.3657 23.8959 22.3657 26.25C22.3657 28.6041 24.2576 30.5192 26.5836 30.5192ZM26.5836 23.4038C28.134 23.4038 29.3955 24.6807 29.3955 26.25C29.3955 27.8193 28.134 29.0962 26.5836 29.0962C25.0332 29.0962 23.7717 27.8193 23.7717 26.25C23.7717 24.6807 25.0332 23.4038 26.5836 23.4038ZM44.8612 30.5192C47.187 30.5192 49.0791 28.6041 49.0791 26.25C49.0791 23.8959 47.187 21.9808 44.8612 21.9808C42.5354 21.9808 40.6433 23.8959 40.6433 26.25C40.6433 28.6041 42.5352 30.5192 44.8612 30.5192ZM44.8612 23.4038C46.4116 23.4038 47.6731 24.6807 47.6731 26.25C47.6731 27.8193 46.4116 29.0962 44.8612 29.0962C43.3108 29.0962 42.0493 27.8193 42.0493 26.25C42.0493 24.6807 43.3108 23.4038 44.8612 23.4038ZM26.5836 40.4808C24.2578 40.4808 22.3657 42.3959 22.3657 44.75C22.3657 47.1041 24.2578 49.0192 26.5836 49.0192C28.9094 49.0192 30.8015 47.1041 30.8015 44.75C30.8015 42.3959 28.9094 40.4808 26.5836 40.4808ZM26.5836 47.5962C25.0332 47.5962 23.7717 46.3193 23.7717 44.75C23.7717 43.1807 25.0332 41.9038 26.5836 41.9038C28.134 41.9038 29.3955 43.1807 29.3955 44.75C29.3955 46.3193 28.134 47.5962 26.5836 47.5962ZM44.8612 40.4808C42.5354 40.4808 40.6433 42.3959 40.6433 44.75C40.6433 47.1041 42.5354 49.0192 44.8612 49.0192C47.187 49.0192 49.0791 47.1041 49.0791 44.75C49.0791 42.3959 47.187 40.4808 44.8612 40.4808ZM44.8612 47.5962C43.3108 47.5962 42.0493 46.3193 42.0493 44.75C42.0493 43.1807 43.3108 41.9038 44.8612 41.9038C46.4116 41.9038 47.6731 43.1807 47.6731 44.75C47.6731 46.3193 46.4116 47.5962 44.8612 47.5962Z" fill="white"/>
</svg>
