<svg width="70" height="70" viewBox="0 0 70 70" fill="none" xmlns="http://www.w3.org/2000/svg">
<path d="M60.3727 12.7468C68.0708 21.7595 72.1307 34.4303 68.8617 44.0792C65.5926 53.675 54.9945 60.249 44.2383 64.8084C33.482 69.3677 22.5675 71.9125 14.184 68.2544C5.80042 64.5433 -0.0522513 54.6293 0.000475452 45.9347C0.0532023 37.2401 6.11678 29.7649 12.0749 21.1233C18.033 12.4818 23.9384 2.67382 32.5856 0.500176C41.2328 -1.72649 52.6218 3.68113 60.3727 12.7468Z" fill="#F009BD"/>
<path d="M49.3786 21.9742C50.9284 21.9742 52.1893 20.7132 52.1893 19.1635C52.1893 17.6137 50.9284 16.3528 49.3786 16.3528C47.8289 16.3528 46.5679 17.6137 46.5679 19.1635C46.5679 20.7132 47.8289 21.9742 49.3786 21.9742ZM49.3786 17.7581C50.1537 17.7581 50.784 18.3884 50.784 19.1635C50.784 19.9385 50.1537 20.5688 49.3786 20.5688C48.6036 20.5688 47.9733 19.9385 47.9733 19.1635C47.9733 18.3884 48.6036 17.7581 49.3786 17.7581ZM25.1363 18.2024C25.3473 18.2024 25.5498 18.1186 25.699 17.9693C25.8482 17.8201 25.9321 17.6177 25.9321 17.4066C25.9321 17.1956 25.8482 16.9931 25.699 16.8439C25.5498 16.6947 25.3473 16.6108 25.1363 16.6108C24.9252 16.6108 24.7228 16.6947 24.5736 16.8439C24.4243 16.9931 24.3405 17.1956 24.3405 17.4066C24.3405 17.6177 24.4243 17.8201 24.5736 17.9693C24.7228 18.1186 24.9252 18.2024 25.1363 18.2024ZM19.5149 20.3104C19.7259 20.3104 19.9283 20.2266 20.0776 20.0773C20.2268 19.9281 20.3107 19.7257 20.3107 19.5146C20.3107 19.3036 20.2268 19.1012 20.0776 18.9519C19.9283 18.8027 19.7259 18.7189 19.5149 18.7189C19.3038 18.7189 19.1014 18.8027 18.9522 18.9519C18.8029 19.1012 18.7191 19.3036 18.7191 19.5146C18.7191 19.7257 18.8029 19.9281 18.9522 20.0773C19.1014 20.2266 19.3038 20.3104 19.5149 20.3104ZM54.2445 34.6224C54.2445 33.1778 53.6818 31.8196 52.6603 30.7984L38.4462 16.5843C37.4252 15.563 36.0668 15.0001 34.6222 15.0001C33.1777 15.0001 31.8194 15.5628 30.7983 16.5843L16.5842 30.7984C15.5628 31.8194 15 33.1778 15 34.6224C15 36.0669 15.5627 37.4252 16.5842 38.4463L29.2981 51.1602C26.5933 51.6033 26.1903 52.2761 26.1903 52.892C26.1903 54.7945 32.0872 55 34.6224 55C42.2328 55 43.0545 53.5256 43.0545 52.892C43.0545 52.307 42.6632 51.6076 39.9468 51.1599L52.6603 38.4463C53.6818 37.4252 54.2445 36.0667 54.2445 34.6224ZM30.5439 52.4057L30.7986 52.6604C31.1303 52.9923 31.5006 53.2702 31.895 53.5015C30.016 53.3703 28.7089 53.1207 28.0304 52.8951C28.4872 52.7412 29.2779 52.5531 30.5439 52.4057ZM41.2155 52.8946C40.5377 53.1203 39.2302 53.3701 37.35 53.5014C37.7444 53.27 38.1146 52.9921 38.4462 52.6603L38.7004 52.4061C39.964 52.5531 40.7589 52.7407 41.2155 52.8946ZM37.4526 51.6667C36.6967 52.4226 35.6915 52.8391 34.6224 52.8391C33.5533 52.8391 32.548 52.4226 31.7922 51.6667L17.5781 37.4526C16.8222 36.6967 16.4057 35.6915 16.4057 34.6224C16.4057 33.5532 16.8222 32.5479 17.5781 31.7922L31.7922 17.5781C32.5481 16.8222 33.5533 16.4057 34.6224 16.4057C35.6915 16.4057 36.6969 16.8222 37.4526 17.5781L51.6667 31.7922C52.4226 32.5481 52.8391 33.5532 52.8391 34.6224C52.8391 35.6915 52.4226 36.6968 51.6667 37.4526L37.4526 51.6667Z" fill="white"/>
<path d="M39.5412 26.1902C37.4261 26.1902 35.5818 27.3655 34.6224 29.0962C33.6631 27.3655 31.8187 26.1902 29.7037 26.1902C26.604 26.1902 24.0823 28.712 24.0823 31.8117C24.0823 34.9113 26.604 37.4331 29.7037 37.4331C29.8922 37.4331 30.0786 37.4231 30.2623 37.4048C29.475 38.3724 29.001 39.6047 29.001 40.9465C29.001 44.0461 31.5227 46.5679 34.6224 46.5679C37.7221 46.5679 40.2438 44.0461 40.2438 40.9465C40.2438 39.6047 39.7699 38.3722 38.9825 37.4048C39.1665 37.4231 39.3527 37.4331 39.5412 37.4331C42.6408 37.4331 45.1626 34.9113 45.1626 31.8117C45.1626 28.712 42.6408 26.1902 39.5412 26.1902ZM25.4876 31.8117C25.4876 29.4869 27.3789 27.5956 29.7037 27.5956C32.0285 27.5956 33.9197 29.4869 33.9197 31.8117C33.9197 34.1365 32.0285 36.0277 29.7037 36.0277C27.3789 36.0277 25.4876 34.1365 25.4876 31.8117ZM34.6224 34.527C34.7839 34.8184 34.9708 35.0949 35.181 35.3533C34.9971 35.3351 34.8109 35.325 34.6224 35.325C34.4339 35.325 34.2475 35.3351 34.0638 35.3533C34.274 35.0949 34.461 34.8184 34.6224 34.527ZM34.6224 45.1625C32.2976 45.1625 30.4064 43.2713 30.4064 40.9465C30.4064 38.6217 32.2976 36.7304 34.6224 36.7304C36.9472 36.7304 38.8385 38.6217 38.8385 40.9465C38.8385 43.2713 36.9472 45.1625 34.6224 45.1625ZM39.5412 36.0277C37.2164 36.0277 35.3251 34.1365 35.3251 31.8117C35.3251 29.4869 37.2164 27.5956 39.5412 27.5956C41.866 27.5956 43.7572 29.4869 43.7572 31.8117C43.7572 34.1365 41.866 36.0277 39.5412 36.0277Z" fill="white"/>
</svg>
