<svg width="22" height="24" viewBox="0 0 22 24" fill="none" xmlns="http://www.w3.org/2000/svg">
<path d="M15.3363 10.862V5.38309C15.3363 4.22062 14.8745 3.10577 14.0525 2.28378C13.2305 1.46179 12.1157 1 10.9532 1C9.79075 1 8.67589 1.46179 7.8539 2.28378C7.03191 3.10577 6.57013 4.22062 6.57013 5.38309V10.862M1.41171 9.59086C1.45579 9.04167 1.70511 8.52922 2.11002 8.15558C2.51493 7.78194 3.04572 7.57453 3.59668 7.57464H18.3095C18.8605 7.57453 19.3913 7.78194 19.7962 8.15558C20.2011 8.52922 20.4504 9.04167 20.4945 9.59086L20.6244 20.5486C20.6486 20.8501 20.6101 21.1534 20.5113 21.4394C20.4126 21.7253 20.2557 21.9877 20.0505 22.2101C19.8454 22.4324 19.5964 22.6098 19.3194 22.7313C19.0423 22.8527 18.743 22.9154 18.4405 22.9155H3.46568C3.16316 22.9154 2.86394 22.8527 2.58685 22.7313C2.30976 22.6098 2.0608 22.4324 1.85566 22.2101C1.65051 21.9877 1.49362 21.7253 1.39486 21.4394C1.2961 21.1534 1.2576 20.8501 1.2818 20.5486L1.41171 9.59086Z" stroke="white" stroke-width="1.5" stroke-linecap="round" stroke-linejoin="round"/>
</svg>
