<svg width="15" height="16" viewBox="0 0 15 16" fill="none" xmlns="http://www.w3.org/2000/svg">
<path d="M13.125 0.875C14.1504 0.875 15 1.72461 15 2.75V11.1875C15 12.2422 14.1504 13.0625 13.125 13.0625H8.90625L5.24414 15.8164C5.15625 15.875 5.09766 15.875 5.03906 15.875C4.83398 15.875 4.6875 15.7578 4.6875 15.5234V13.0625H1.875C0.820312 13.0625 0 12.2422 0 11.1875V2.75C0 1.72461 0.820312 0.875 1.875 0.875H13.125ZM13.5938 11.1875V2.75C13.5938 2.51562 13.3594 2.28125 13.125 2.28125H1.875C1.61133 2.28125 1.40625 2.51562 1.40625 2.75V11.1875C1.40625 11.4512 1.61133 11.6562 1.875 11.6562H6.09375V13.4141L8.05664 11.9492L8.4375 11.6562H13.125C13.3594 11.6562 13.5938 11.4512 13.5938 11.1875Z" fill="#F009BD"/>
</svg>
