<svg width="60" height="61" viewBox="0 0 60 61" fill="none" xmlns="http://www.w3.org/2000/svg">
<path d="M25.8536 20.5943C25.8536 20.287 25.7315 19.9924 25.5142 19.7751C25.2968 19.5578 25.0021 19.4358 24.6947 19.4358C24.3873 19.4358 24.0926 19.5578 23.8752 19.7751C23.6579 19.9924 23.5358 20.287 23.5358 20.5943C23.5358 20.9015 23.6579 21.1962 23.8752 21.4134C24.0926 21.6307 24.3873 21.7527 24.6947 21.7527C25.0021 21.7527 25.2968 21.6307 25.5142 21.4134C25.7315 21.1962 25.8536 20.9015 25.8536 20.5943ZM15.4851 2.31681C15.6388 2.31909 15.7913 2.29081 15.9339 2.23363C16.0765 2.17644 16.2063 2.09148 16.3157 1.98369C16.4252 1.8759 16.5121 1.74744 16.5714 1.60577C16.6307 1.4641 16.6613 1.31205 16.6613 1.15847C16.6613 1.00489 16.6307 0.85284 16.5714 0.711169C16.5121 0.569499 16.4252 0.441032 16.3157 0.333244C16.2063 0.225456 16.0765 0.140497 15.9339 0.0833094C15.7913 0.0261214 15.6388 -0.00215391 15.4851 0.000127876C15.1808 0.0046484 14.8905 0.128676 14.6768 0.345415C14.4632 0.562154 14.3435 0.854204 14.3435 1.15847C14.3435 1.46273 14.4632 1.75478 14.6768 1.97152C14.8905 2.18826 15.1808 2.31229 15.4851 2.31681ZM1.15877 25.5734C1.00658 25.5734 0.855889 25.6034 0.715291 25.6616C0.574693 25.7198 0.446946 25.8052 0.339344 25.9128C0.231742 26.0204 0.146392 26.1481 0.0881673 26.2886C0.0299426 26.4292 -1.67909e-05 26.5798 7.0599e-09 26.732C1.6805e-05 26.8841 0.0300092 27.0347 0.0882649 27.1753C0.146521 27.3158 0.231899 27.4435 0.339525 27.5511C0.447151 27.6587 0.574916 27.744 0.715527 27.8022C0.856138 27.8604 1.00684 27.8903 1.15903 27.8903C1.46639 27.8903 1.76115 27.7682 1.97846 27.5509C2.19577 27.3336 2.31784 27.039 2.3178 26.7317C2.31777 26.4245 2.19564 26.1298 1.97828 25.9126C1.76092 25.6954 1.46613 25.5733 1.15877 25.5734ZM10.8802 39.5185C14.2659 39.5185 17.0201 36.7653 17.0201 33.3809C17.0201 29.9965 14.2659 27.2433 10.8802 27.2433C7.49461 27.2433 4.74037 29.9965 4.74037 33.3809C4.74037 36.7653 7.49436 39.5185 10.8802 39.5185ZM10.8802 29.2892C13.1377 29.2892 14.9735 31.1243 14.9735 33.3809C14.9735 35.6375 13.1377 37.4726 10.8802 37.4726C8.62281 37.4726 6.78699 35.6375 6.78699 33.3809C6.78699 31.1243 8.62256 29.2892 10.8802 29.2892ZM53.8594 27.2433C50.4737 27.2433 47.7195 29.9965 47.7195 33.3809C47.7195 36.7653 50.4737 39.5185 53.8594 39.5185C57.245 39.5185 59.9992 36.7653 59.9992 33.3809C59.9992 29.9965 57.245 27.2433 53.8594 27.2433ZM53.8594 37.4726C51.6019 37.4726 49.7661 35.6375 49.7661 33.3809C49.7661 31.1243 51.6019 29.2892 53.8594 29.2892C56.1168 29.2892 57.9526 31.1243 57.9526 33.3809C57.9526 35.6375 56.1168 37.4726 53.8594 37.4726Z" fill="white"/>
<path d="M53.8594 48.7248C50.8229 48.7248 48.3012 50.9413 47.8118 53.8395H38.4171C37.9277 50.9413 35.406 48.7248 32.3695 48.7248C29.3331 48.7248 26.8114 50.9413 26.322 53.8395H16.9275C16.7741 52.9284 16.4156 52.0641 15.8791 51.3118L28.8176 38.3782C29.8215 39.0932 31.0456 39.5185 32.3695 39.5185C35.7552 39.5185 38.5094 36.7653 38.5094 33.3809C38.5094 32.0575 38.084 30.8338 37.3687 29.8303L50.3072 16.8966C51.3111 17.6117 52.5352 18.0369 53.8591 18.0369C57.2447 18.0369 59.999 15.2837 59.999 11.8994C59.999 8.515 57.2447 5.76178 53.8591 5.76178C50.8227 5.76178 48.301 7.97821 47.8116 10.8764H38.4168C37.9274 7.97821 35.4057 5.76178 32.3693 5.76178C29.3329 5.76178 26.8112 7.97821 26.3218 10.8764H16.9275C16.4381 7.97821 13.9164 5.76178 10.88 5.76178C7.49436 5.76178 4.74011 8.515 4.74011 11.8994C4.74011 15.2837 7.49436 18.0369 10.88 18.0369C13.9164 18.0369 16.4381 15.8205 16.9275 12.9223H26.3223C26.8117 15.8205 29.3334 18.0369 32.3698 18.0369C35.4062 18.0369 37.9279 15.8205 38.4173 12.9223H47.8121C47.9655 13.8333 48.324 14.6977 48.8605 15.45L35.922 28.3836C34.9181 27.6686 33.694 27.2433 32.3701 27.2433C28.9844 27.2433 26.2302 29.9965 26.2302 33.3809C26.2302 34.7043 26.6556 35.928 27.3709 36.9315L14.4324 49.8652C13.4285 49.1501 12.2044 48.7248 10.8805 48.7248C7.49487 48.7248 4.74062 51.4781 4.74062 54.8624C4.74062 58.2468 7.49487 61 10.8805 61C13.9169 61 16.4386 58.7836 16.928 55.8853H26.3228C26.8122 58.7836 29.3339 61 32.3703 61C35.4067 61 37.9284 58.7836 38.4178 55.8853H47.8126C48.302 58.7836 50.8237 61 53.8601 61C57.2458 61 60 58.2468 60 54.8624C60 51.4781 57.245 48.7248 53.8594 48.7248ZM10.8802 15.9911C8.62281 15.9911 6.78699 14.1559 6.78699 11.8994C6.78699 9.64278 8.62281 7.80764 10.8802 7.80764C13.1377 7.80764 14.9735 9.64278 14.9735 11.8994C14.9735 14.1559 13.1377 15.9911 10.8802 15.9911ZM32.3698 15.9911C30.1124 15.9911 28.2766 14.1559 28.2766 11.8994C28.2766 9.64278 30.1124 7.80764 32.3698 7.80764C34.6272 7.80764 36.4631 9.64278 36.4631 11.8994C36.4631 14.1559 34.6272 15.9911 32.3698 15.9911ZM53.8594 7.80764C56.1168 7.80764 57.9526 9.64278 57.9526 11.8994C57.9526 14.1559 56.1168 15.9911 53.8594 15.9911C51.6019 15.9911 49.7661 14.1559 49.7661 11.8994C49.7661 9.64278 51.6017 7.80764 53.8594 7.80764ZM32.3698 29.2892C34.6272 29.2892 36.4631 31.1243 36.4631 33.3809C36.4631 35.6375 34.6272 37.4726 32.3698 37.4726C30.1124 37.4726 28.2766 35.6375 28.2766 33.3809C28.2766 31.1243 30.1121 29.2892 32.3698 29.2892ZM10.8802 58.9541C8.62281 58.9541 6.78699 57.119 6.78699 54.8624C6.78699 52.6058 8.62281 50.7707 10.8802 50.7707C13.1377 50.7707 14.9735 52.6058 14.9735 54.8624C14.9735 57.119 13.1377 58.9541 10.8802 58.9541ZM32.3698 58.9541C30.1124 58.9541 28.2766 57.119 28.2766 54.8624C28.2766 52.6058 30.1124 50.7707 32.3698 50.7707C34.6272 50.7707 36.4631 52.6058 36.4631 54.8624C36.4631 57.119 34.6272 58.9541 32.3698 58.9541ZM53.8594 58.9541C51.6019 58.9541 49.7661 57.119 49.7661 54.8624C49.7661 52.6058 51.6019 50.7707 53.8594 50.7707C56.1168 50.7707 57.9526 52.6058 57.9526 54.8624C57.9526 57.119 56.1168 58.9541 53.8594 58.9541Z" fill="white"/>
</svg>
