<svg width="90" height="90" viewBox="0 0 90 90" fill="none" xmlns="http://www.w3.org/2000/svg">
<path d="M77.6218 16.3888C87.5194 27.9765 92.7394 44.2675 88.5363 56.6732C84.3332 69.0108 70.7071 77.463 56.8776 83.325C43.0481 89.1871 29.0153 92.4589 18.2364 87.7556C7.45753 82.9842 -0.0673373 70.2377 0.000454348 59.0589C0.0682459 47.8802 7.86428 38.2692 15.5247 27.1586C23.1852 16.048 30.7778 3.43777 41.8957 0.643083C53.0135 -2.21977 67.6565 4.73288 77.6218 16.3888Z" fill="#F009BD"/>
<path d="M66.8163 29.5919C65.0605 29.5919 63.6327 31.0202 63.6327 32.7756C63.6327 34.531 65.0605 35.9593 66.8163 35.9593C68.5721 35.9593 70 34.531 70 32.7756C70 31.0202 68.5721 29.5919 66.8163 29.5919ZM66.8163 34.3674C65.9388 34.3674 65.2245 33.6535 65.2245 32.7756C65.2245 31.8977 65.9388 31.1837 66.8163 31.1837C67.6938 31.1837 68.4082 31.8977 68.4082 32.7756C68.4082 33.6535 67.6938 34.3674 66.8163 34.3674ZM60.051 33.2788C60.2901 33.2788 60.5194 33.1838 60.6884 33.0148C60.8574 32.8458 60.9524 32.6165 60.9524 32.3774C60.9524 32.1384 60.8574 31.9091 60.6884 31.7401C60.5194 31.571 60.2901 31.476 60.051 31.476C59.812 31.476 59.5827 31.571 59.4136 31.7401C59.2446 31.9091 59.1496 32.1384 59.1496 32.3774C59.1496 32.6165 59.2446 32.8458 59.4136 33.0148C59.5827 33.1838 59.812 33.2788 60.051 33.2788ZM68.1157 38.745C68.1157 38.5059 68.0207 38.2766 67.8517 38.1076C67.6826 37.9386 67.4533 37.8436 67.2143 37.8436C66.9752 37.8436 66.746 37.9386 66.5769 38.1076C66.4079 38.2766 66.3129 38.5059 66.3129 38.745C66.3129 38.984 66.4079 39.2133 66.5769 39.3823C66.746 39.5514 66.9752 39.6463 67.2143 39.6463C67.4533 39.6463 67.6826 39.5514 67.8517 39.3823C68.0207 39.2133 68.1157 38.984 68.1157 38.745ZM68.0102 48.8008L32.1939 28.1069C32.0729 28.0369 31.9357 28.0001 31.7959 28C31.6562 27.9999 31.5189 28.0367 31.3979 28.1065C31.2768 28.1764 31.1763 28.2769 31.1065 28.3979C31.0366 28.519 30.9999 28.6562 31 28.796V70.1837C31 70.3234 31.0368 70.4607 31.1067 70.5816C31.1766 70.7026 31.2771 70.803 31.3981 70.8729C31.519 70.9427 31.6563 70.9795 31.796 70.9794C31.9357 70.9794 32.0729 70.9427 32.1939 70.8728L68.0102 50.1789C68.1311 50.109 68.2315 50.0086 68.3013 49.8876C68.371 49.7667 68.4078 49.6295 68.4078 49.4899C68.4078 49.3502 68.371 49.213 68.3013 49.0921C68.2315 48.9711 68.1311 48.8707 68.0102 48.8008ZM44.376 49.4899L32.5918 67.512V31.4677L44.376 49.4899ZM45.7571 50.2858H64.6437L34.2903 67.8231L45.7571 50.2858ZM45.7571 48.694L34.2903 31.1567L64.6437 48.694H45.7571Z" fill="white"/>
</svg>
