<svg width="90" height="90" viewBox="0 0 90 90" fill="none" xmlns="http://www.w3.org/2000/svg">
<path d="M77.6218 16.3888C87.5193 27.9765 92.7393 44.2675 88.5362 56.6732C84.3331 69.0108 70.707 77.463 56.8775 83.325C43.0481 89.1871 29.0152 92.4589 18.2363 87.7556C7.45747 82.9842 -0.0673983 70.2377 0.000393313 59.0589C0.0681849 47.8802 7.86422 38.2692 15.5247 27.1586C23.1851 16.048 30.7778 3.43777 41.8956 0.643083C53.0134 -2.21977 67.6564 4.73288 77.6218 16.3888Z" fill="#F009BD"/>
<path d="M65.0118 24.85C63.2811 24.85 61.8737 26.2578 61.8737 27.9881C61.8737 29.7185 63.2811 31.1263 65.0118 31.1263C66.7426 31.1263 68.15 29.7185 68.15 27.9881C68.15 26.2578 66.7426 24.85 65.0118 24.85ZM65.0118 29.5572C64.1469 29.5572 63.4428 28.8535 63.4428 27.9881C63.4428 27.1228 64.1469 26.4191 65.0118 26.4191C65.8768 26.4191 66.5809 27.1228 66.5809 27.9881C66.5809 28.8535 65.8768 29.5572 65.0118 29.5572ZM59.9123 23.7769C60.0301 23.7786 60.147 23.757 60.2563 23.7131C60.3657 23.6692 60.4652 23.6041 60.5491 23.5214C60.633 23.4387 60.6996 23.3402 60.7451 23.2316C60.7906 23.1229 60.814 23.0063 60.814 22.8885C60.814 22.7707 60.7906 22.6541 60.7451 22.5454C60.6996 22.4368 60.633 22.3383 60.5491 22.2556C60.4652 22.1729 60.3657 22.1078 60.2563 22.0639C60.147 22.02 60.0301 21.9983 59.9123 22.0001C59.679 22.0036 59.4564 22.0987 59.2926 22.2649C59.1288 22.4311 59.037 22.6551 59.037 22.8885C59.037 23.1219 59.1288 23.3458 59.2926 23.5121C59.4564 23.6783 59.679 23.7734 59.9123 23.7769ZM53.6359 26.1305C53.7537 26.1323 53.8707 26.1106 53.98 26.0667C54.0893 26.0229 54.1888 25.9577 54.2727 25.875C54.3566 25.7924 54.4232 25.6939 54.4687 25.5852C54.5142 25.4765 54.5376 25.3599 54.5376 25.2421C54.5376 25.1243 54.5142 25.0077 54.4687 24.8991C54.4232 24.7904 54.3566 24.6919 54.2727 24.6092C54.1888 24.5266 54.0893 24.4614 53.98 24.4175C53.8707 24.3737 53.7537 24.352 53.6359 24.3537C53.4026 24.3572 53.18 24.4523 53.0162 24.6186C52.8524 24.7848 52.7606 25.0088 52.7606 25.2421C52.7606 25.4755 52.8524 25.6995 53.0162 25.8657C53.18 26.0319 53.4026 26.1271 53.6359 26.1305ZM64.2273 38.1872H60.3046V34.2645C60.3046 33.8312 59.9537 33.48 59.52 33.48H54.8128V28.7727C54.8128 28.3394 54.4619 27.9881 54.0282 27.9881H25.7845C25.3509 27.9881 25 28.3394 25 28.7727V57.0163C25 57.4496 25.3509 57.8009 25.7845 57.8009H30.4918V62.5082C30.4918 62.9414 30.8427 63.2927 31.2764 63.2927H35.1991V67.2155C35.1991 67.6487 35.55 68 35.9836 68H64.2273C64.661 68 65.0118 67.6487 65.0118 67.2155V38.9718C65.0118 38.5385 64.661 38.1872 64.2273 38.1872ZM63.4428 39.7563V65.3216L60.3046 62.1834V39.7563H63.4428ZM58.7355 35.0491V60.6143L54.8128 56.6915V35.0491H58.7355ZM26.5691 29.5572H53.2437V56.2318H26.5691V29.5572ZM32.0609 57.8009H53.7034L57.6261 61.7236H32.0609V57.8009ZM36.7682 63.2927H59.1952L62.3334 66.4309H36.7682V63.2927Z" fill="white"/>
<path d="M48.7823 37.3472L45.4541 34.0186C45.3813 33.9457 45.2948 33.8879 45.1996 33.8484C45.1045 33.809 45.0024 33.7887 44.8994 33.7887C44.7964 33.7887 44.6944 33.809 44.5992 33.8484C44.504 33.8879 44.4176 33.9457 44.3447 34.0186L39.9064 38.4565L35.468 34.0186C35.1738 33.7244 34.6529 33.7244 34.3586 34.0186L31.0304 37.3472C30.8833 37.4943 30.8007 37.6938 30.8007 37.9019C30.8007 38.1099 30.8833 38.3094 31.0304 38.4565L35.4688 42.8945L31.0304 47.3325C30.8833 47.4796 30.8007 47.6791 30.8007 47.8872C30.8007 48.0952 30.8833 48.2947 31.0304 48.4419L34.3586 51.7705C34.4315 51.8434 34.5179 51.9012 34.6131 51.9406C34.7083 51.98 34.8103 52.0004 34.9133 52.0004C35.0163 52.0004 35.1184 51.98 35.2135 51.9406C35.3087 51.9012 35.3952 51.8434 35.468 51.7705L39.9064 47.3325L44.3447 51.7705C44.4176 51.8434 44.504 51.9012 44.5992 51.9406C44.6944 51.98 44.7964 52.0004 44.8994 52.0004C45.0024 52.0004 45.1045 51.98 45.1996 51.9406C45.2948 51.9012 45.3813 51.8434 45.4541 51.7705L48.7823 48.4419C48.9294 48.2947 49.012 48.0952 49.012 47.8872C49.012 47.6791 48.9294 47.4796 48.7823 47.3325L44.344 42.8945L48.7823 38.4565C48.9294 38.3094 49.012 38.1099 49.012 37.9019C49.012 37.6938 48.9294 37.4943 48.7823 37.3472ZM42.6799 42.3398C42.5329 42.487 42.4503 42.6865 42.4503 42.8945C42.4503 43.1025 42.5329 43.302 42.6799 43.4492L47.1183 47.8872L44.8996 50.1063L40.4612 45.6683C40.3081 45.5151 40.1072 45.4384 39.9066 45.4384C39.7059 45.4384 39.5051 45.5151 39.3519 45.6683L34.9135 50.1063L32.6944 47.8872L37.1328 43.4492C37.2798 43.302 37.3624 43.1025 37.3624 42.8945C37.3624 42.6865 37.2798 42.487 37.1328 42.3398L32.6944 37.9019L34.9131 35.6828L39.3515 40.1208C39.4986 40.2678 39.6981 40.3505 39.9062 40.3505C40.1142 40.3505 40.3137 40.2678 40.4608 40.1208L44.8992 35.6828L47.1179 37.9019L42.6799 42.3398Z" fill="white"/>
</svg>
