<svg width="90" height="90" viewBox="0 0 90 90" fill="none" xmlns="http://www.w3.org/2000/svg">
<path d="M77.6218 16.3888C87.5194 27.9765 92.7394 44.2675 88.5363 56.6732C84.3332 69.0108 70.7071 77.463 56.8776 83.325C43.0481 89.1871 29.0153 92.4589 18.2364 87.7556C7.45753 82.9842 -0.0673373 70.2377 0.000454348 59.0589C0.0682459 47.8802 7.86428 38.2692 15.5247 27.1586C23.1852 16.048 30.7778 3.43777 41.8957 0.643083C53.0135 -2.21977 67.6565 4.73288 77.6218 16.3888Z" fill="#F009BD"/>
<path d="M28.4231 28.2727C30.417 28.2727 32.0385 26.6414 32.0385 24.6364C32.0385 22.6314 30.417 21 28.4231 21C26.4292 21 24.8077 22.6314 24.8077 24.6364C24.8077 26.6414 26.4292 28.2727 28.4231 28.2727ZM28.4231 22.8182C29.4196 22.8182 30.2308 23.6336 30.2308 24.6364C30.2308 25.6391 29.4196 26.4545 28.4231 26.4545C27.4266 26.4545 26.6154 25.6391 26.6154 24.6364C26.6154 23.6336 27.4266 22.8182 28.4231 22.8182ZM49.2167 30.3057C50.3478 30.4865 51.4578 30.7812 52.5302 31.1855C52.6353 31.225 52.7422 31.2441 52.8479 31.2441C53.0319 31.2438 53.2114 31.1872 53.3626 31.0818C53.5138 30.9764 53.6296 30.8272 53.6944 30.6541C53.7784 30.4283 53.7699 30.1783 53.6708 29.9588C53.5716 29.7394 53.39 29.5685 53.1656 29.4836C51.9795 29.0365 50.7517 28.7102 49.5008 28.5098C49.3835 28.4904 49.2636 28.4946 49.1479 28.5222C49.0323 28.5497 48.9232 28.6001 48.827 28.6703C48.7308 28.7405 48.6494 28.8292 48.5875 28.9312C48.5256 29.0333 48.4844 29.1466 48.4663 29.2648C48.4287 29.5029 48.4866 29.7463 48.6273 29.9415C48.768 30.1366 48.98 30.2676 49.2167 30.3057ZM55.6029 32.7143C56.5737 33.3263 57.4817 34.0338 58.3135 34.8264C58.481 34.9868 58.7036 35.0762 58.9349 35.0759C59.1158 35.0761 59.2926 35.0217 59.4424 34.9197C59.5921 34.8177 59.708 34.6728 59.775 34.5037C59.8419 34.3347 59.8569 34.1494 59.8179 33.9717C59.7789 33.794 59.6878 33.6322 59.5563 33.5073C58.6381 32.6313 57.6354 31.8494 56.5632 31.1732C56.3597 31.0458 56.1144 31.0046 55.8809 31.0586C55.6473 31.1126 55.4445 31.2574 55.3168 31.4614C55.1897 31.6657 55.1484 31.9124 55.202 32.1474C55.2557 32.3823 55.3998 32.5862 55.6029 32.7143ZM60.7726 36.17C60.6756 36.2387 60.593 36.326 60.5296 36.4269C60.4661 36.5277 60.423 36.6402 60.4028 36.7577C60.3825 36.8753 60.3855 36.9958 60.4116 37.1122C60.4376 37.2287 60.4862 37.3388 60.5546 37.4364C61.214 38.3786 61.7778 39.3849 62.2378 40.4402C62.2854 40.5496 62.3539 40.6485 62.4395 40.7312C62.5251 40.8139 62.626 40.8789 62.7366 40.9224C62.8471 40.9658 62.9651 40.987 63.0838 40.9846C63.2025 40.9823 63.3195 40.9564 63.4282 40.9085C63.537 40.8607 63.6353 40.7917 63.7175 40.7056C63.7998 40.6195 63.8644 40.518 63.9076 40.4068C63.9508 40.2956 63.9719 40.177 63.9695 40.0576C63.9671 39.9382 63.9414 39.8205 63.8938 39.7111C63.3854 38.5441 62.7618 37.4313 62.0324 36.3895C61.964 36.2919 61.8772 36.2087 61.7769 36.1448C61.6766 36.0809 61.5648 36.0375 61.4478 36.0171C61.3307 35.9967 61.2109 35.9997 61.0951 36.0259C60.9792 36.0522 60.8697 36.1011 60.7726 36.17ZM42.183 30.612C42.2544 30.612 42.3269 30.6036 42.3993 30.5859C43.5119 30.3126 44.6488 30.1515 45.7932 30.1052C45.9118 30.1005 46.0283 30.0723 46.136 30.0223C46.2438 29.9722 46.3407 29.9013 46.4212 29.8136C46.5017 29.7259 46.5642 29.6231 46.6052 29.511C46.6461 29.399 46.6648 29.28 46.66 29.1607C46.6396 28.6582 46.2072 28.2586 45.7209 28.2889C44.4557 28.34 43.1988 28.518 41.9688 28.8202C41.736 28.8776 41.5354 29.0256 41.4111 29.2317C41.2868 29.4378 41.2489 29.6851 41.3058 29.9193C41.354 30.1168 41.4665 30.2924 41.6256 30.4179C41.7846 30.5435 41.9808 30.6119 42.183 30.612ZM35.6918 33.698C35.8798 33.698 36.0696 33.6393 36.2312 33.5173C37.1499 32.8279 38.1345 32.2321 39.1705 31.7386C39.3871 31.6355 39.5541 31.45 39.6349 31.2231C39.7156 30.9961 39.7035 30.7462 39.6012 30.5282C39.5505 30.4202 39.4791 30.3233 39.3911 30.243C39.3031 30.1628 39.2003 30.1008 39.0885 30.0606C38.9766 30.0204 38.858 30.0028 38.7394 30.0088C38.6208 30.0148 38.5045 30.0442 38.3972 30.0955C37.2529 30.6404 36.1654 31.2986 35.1509 32.0605C34.9984 32.1746 34.8857 32.3341 34.8286 32.5164C34.7715 32.6987 34.7731 32.8945 34.833 33.0758C34.8929 33.2572 35.0081 33.4149 35.1623 33.5266C35.3165 33.6383 35.5018 33.6983 35.6918 33.698ZM29.688 40.6084C29.5757 40.5695 29.4569 40.5533 29.3384 40.5606C29.2199 40.568 29.1039 40.5988 28.9973 40.6512C28.8906 40.7037 28.7953 40.7769 28.7167 40.8665C28.6382 40.9561 28.578 41.0604 28.5397 41.1734C28.1298 42.3786 27.8412 43.6221 27.6783 44.8852C27.662 45.0135 27.673 45.1438 27.7106 45.2674C27.7483 45.391 27.8117 45.5052 27.8966 45.6022C27.9816 45.6993 28.0861 45.777 28.2033 45.8302C28.3204 45.8835 28.4475 45.911 28.5761 45.9109C28.7955 45.9105 29.0073 45.83 29.1721 45.6842C29.3369 45.5385 29.4435 45.3375 29.472 45.1186C29.6186 43.9765 29.8794 42.8522 30.2504 41.7627C30.3279 41.5346 30.3122 41.2849 30.2068 41.0685C30.1013 40.852 29.9147 40.6865 29.688 40.6084ZM30.4427 38.9536C30.5451 39.0142 30.6583 39.0539 30.7759 39.0704C30.8935 39.0869 31.0132 39.0799 31.1281 39.0498C31.243 39.0198 31.3509 38.9672 31.4457 38.8952C31.5404 38.8231 31.62 38.733 31.6801 38.63C32.261 37.6368 32.9384 36.7039 33.7022 35.845C33.7827 35.7563 33.8449 35.6524 33.8852 35.5394C33.9255 35.4263 33.9432 35.3064 33.9371 35.1864C33.9311 35.0665 33.9015 34.9489 33.85 34.8406C33.7986 34.7322 33.7263 34.6352 33.6373 34.5551C33.5484 34.4749 33.4445 34.4134 33.3318 34.3739C33.219 34.3344 33.0996 34.3177 32.9804 34.3249C32.8612 34.3321 32.7446 34.3629 32.6374 34.4157C32.5301 34.4684 32.4343 34.5421 32.3555 34.6323C31.5114 35.5811 30.7631 36.6118 30.1214 37.7093C30.0001 37.9172 29.9658 38.165 30.026 38.3984C30.0863 38.6317 30.2362 38.8314 30.4427 38.9536Z" fill="white"/>
<path d="M69.0962 46.4545H65.4376C65.3884 45.4045 65.2754 44.3582 65.0571 43.3389C65.0028 43.1072 64.8604 42.9062 64.6604 42.779C64.4604 42.6519 64.2188 42.6086 63.9875 42.6586C63.7562 42.7086 63.5536 42.8478 63.4232 43.0464C63.2928 43.245 63.245 43.4871 63.2901 43.7207C63.4812 44.6152 63.5809 45.533 63.6288 46.4545H57.228C56.7284 46.4545 56.3241 46.8616 56.3241 47.3636C56.3241 47.8657 56.7284 48.2727 57.228 48.2727H68.1738C67.6981 59.8832 58.1583 69.1818 46.5 69.1818C34.8417 69.1818 25.3021 59.8832 24.8262 48.2727H39.332C39.7792 51.8545 42.8198 54.6364 46.5 54.6364C50.4871 54.6364 53.7308 51.3739 53.7308 47.3636C53.7308 43.3534 50.4871 40.0909 46.5 40.0909C42.8198 40.0909 39.779 42.8727 39.332 46.4545H23.9038C23.4042 46.4545 23 46.8616 23 47.3636C23 60.3968 33.5416 71 46.5 71C59.4584 71 70 60.3968 70 47.3636C70 46.8616 69.5958 46.4545 69.0962 46.4545ZM46.5 41.9091C49.4904 41.9091 51.9231 44.3559 51.9231 47.3636C51.9231 50.3714 49.4904 52.8182 46.5 52.8182C43.5096 52.8182 41.0769 50.3714 41.0769 47.3636C41.0769 44.3559 43.5096 41.9091 46.5 41.9091ZM60.5096 25.2111C60.7811 25.2111 61.0415 25.1027 61.2334 24.9096C61.4254 24.7165 61.5332 24.4546 61.5332 24.1816C61.5332 23.9085 61.4254 23.6467 61.2334 23.4536C61.0415 23.2605 60.7811 23.152 60.5096 23.152C60.2381 23.152 59.9778 23.2605 59.7858 23.4536C59.5938 23.6467 59.486 23.9085 59.486 24.1816C59.486 24.4546 59.5938 24.7165 59.7858 24.9096C59.9778 25.1027 60.2381 25.2111 60.5096 25.2111ZM67.7404 24.302C68.0119 24.302 68.2722 24.1936 68.4642 24.0005C68.6561 23.8074 68.764 23.5455 68.764 23.2725C68.764 22.9994 68.6561 22.7376 68.4642 22.5445C68.2722 22.3514 68.0119 22.243 67.7404 22.243C67.4689 22.243 67.2085 22.3514 67.0166 22.5445C66.8246 22.7376 66.7168 22.9994 66.7168 23.2725C66.7168 23.5455 66.8246 23.8074 67.0166 24.0005C67.2085 24.1936 67.4689 24.302 67.7404 24.302ZM67.6206 40.5455C67.6206 40.6807 67.6471 40.8145 67.6986 40.9394C67.75 41.0643 67.8255 41.1778 67.9205 41.2734C68.0156 41.369 68.1284 41.4448 68.2526 41.4966C68.3768 41.5483 68.5099 41.5749 68.6443 41.5749C68.7788 41.5749 68.9119 41.5482 69.0361 41.4965C69.1602 41.4447 69.2731 41.3689 69.3681 41.2733C69.4632 41.1776 69.5385 41.0641 69.59 40.9392C69.6414 40.8143 69.6679 40.6804 69.6678 40.5452C69.6678 40.2722 69.5599 40.0103 69.3679 39.8173C69.176 39.6242 68.9156 39.5158 68.6441 39.5158C68.3726 39.5158 68.1123 39.6243 67.9204 39.8174C67.7284 40.0105 67.6206 40.2724 67.6206 40.5455Z" fill="white"/>
</svg>
