<svg width="90" height="90" viewBox="0 0 90 90" fill="none" xmlns="http://www.w3.org/2000/svg">
<path d="M77.6218 16.3888C87.5194 27.9765 92.7394 44.2675 88.5363 56.6732C84.3332 69.0108 70.7071 77.463 56.8776 83.325C43.0481 89.1871 29.0153 92.4589 18.2364 87.7556C7.45754 82.9842 -0.0673296 70.2377 0.000461978 59.0589C0.0682536 47.8802 7.86429 38.2692 15.5247 27.1586C23.1852 16.048 30.7778 3.43777 41.8957 0.643083C53.0135 -2.21977 67.6565 4.73288 77.6218 16.3888Z" fill="#F009BD"/>
<path d="M42.0543 60.9016V55.5814H57.1282C60.5507 55.5814 63.3351 52.7969 63.3351 49.3745C63.3351 45.952 60.5507 43.1676 57.1282 43.1676H52.6947V28.9803C52.6947 25.5579 49.9102 22.7734 46.4878 22.7734C43.0653 22.7734 40.2809 25.5579 40.2809 28.9803V32.5271H25.2069C21.7845 32.5271 19 35.3116 19 38.7341C19 42.1565 21.7845 44.941 25.2069 44.941H29.6404V60.9016C29.6404 64.3241 32.4249 67.1086 35.8474 67.1086C39.2698 67.1086 42.0543 64.3241 42.0543 60.9016ZM42.0543 28.9803C42.0543 26.5359 44.0434 24.5468 46.4878 24.5468C48.9322 24.5468 50.9213 26.5359 50.9213 28.9803V43.1676H47.2809C48.4321 42.0401 49.1479 40.4689 49.1479 38.7341C49.1479 35.3116 46.3634 32.5271 42.941 32.5271H42.0543V28.9803ZM20.7734 38.7341C20.7734 36.2896 22.7625 34.3005 25.2069 34.3005H42.941C45.3854 34.3005 47.3745 36.2896 47.3745 38.7341C47.3745 41.1785 45.3854 43.1676 42.941 43.1676C42.7058 43.1676 42.4803 43.261 42.314 43.4273C42.1477 43.5936 42.0543 43.8191 42.0543 44.0543C42.0543 44.2894 42.1477 44.515 42.314 44.6813C42.4803 44.8476 42.7058 44.941 42.941 44.941H57.1282C59.5726 44.941 61.5617 46.9301 61.5617 49.3745C61.5617 51.8189 59.5726 53.808 57.1282 53.808H39.3942C36.9498 53.808 34.9607 51.8189 34.9607 49.3745C34.9607 46.9301 36.9498 44.941 39.3942 44.941C39.6293 44.941 39.8549 44.8476 40.0212 44.6813C40.1875 44.515 40.2809 44.2894 40.2809 44.0543C40.2809 43.8191 40.1875 43.5936 40.0212 43.4273C39.8549 43.261 39.6293 43.1676 39.3942 43.1676H25.2069C22.7625 43.1676 20.7734 41.1785 20.7734 38.7341ZM31.4138 60.9016V44.941H35.0542C33.903 46.0684 33.1872 47.6397 33.1872 49.3745C33.1872 52.7969 35.9717 55.5814 39.3942 55.5814H40.2809V60.9016C40.2809 63.3461 38.2918 65.3351 35.8474 65.3351C33.4029 65.3351 31.4138 63.3461 31.4138 60.9016ZM61.5617 28.0936C63.5174 28.0936 65.1086 26.5024 65.1086 24.5468C65.1086 22.5912 63.5174 21 61.5617 21C59.6061 21 58.0149 22.5912 58.0149 24.5468C58.0149 26.5024 59.6061 28.0936 61.5617 28.0936ZM61.5617 22.7734C62.5398 22.7734 63.3351 23.5688 63.3351 24.5468C63.3351 25.5248 62.5398 26.3202 61.5617 26.3202C60.5837 26.3202 59.7883 25.5248 59.7883 24.5468C59.7883 23.5688 60.5837 22.7734 61.5617 22.7734Z" fill="white"/>
<path d="M33.8718 60.9017V57.3548C33.8718 57.1197 33.7784 56.8941 33.6121 56.7279C33.4458 56.5616 33.2202 56.4681 32.9851 56.4681C32.7499 56.4681 32.5244 56.5616 32.3581 56.7279C32.1918 56.8941 32.0984 57.1197 32.0984 57.3548V60.9017C32.0984 61.1368 32.1918 61.3624 32.3581 61.5287C32.5244 61.6949 32.7499 61.7884 32.9851 61.7884C33.2202 61.7884 33.4458 61.6949 33.6121 61.5287C33.7784 61.3624 33.8718 61.1368 33.8718 60.9017ZM34.3909 64.0202C34.2974 63.8058 34.123 63.637 33.9057 63.5506C33.6883 63.4642 33.4456 63.4672 33.2304 63.5589C33.0153 63.6507 32.8451 63.8237 32.7569 64.0403C32.6687 64.257 32.6697 64.4997 32.7596 64.7156C33.2826 65.9374 34.0891 67.0172 35.1123 67.8654C35.2776 68.0022 35.478 68.0689 35.6773 68.0689C35.9322 68.0689 36.1856 67.9594 36.361 67.7477C36.5108 67.5664 36.5826 67.3331 36.5605 67.099C36.5385 66.8648 36.4243 66.649 36.2433 66.499C35.4376 65.8317 34.8026 64.9819 34.3909 64.0202ZM64.1728 58.2415H60.626C60.3909 58.2415 60.1653 58.335 59.999 58.5013C59.8328 58.6675 59.7393 58.8931 59.7393 59.1283C59.7393 59.3634 59.8328 59.589 59.999 59.7552C60.1653 59.9215 60.3909 60.015 60.626 60.015H64.1728C64.408 60.015 64.6336 59.9215 64.7998 59.7552C64.9661 59.589 65.0596 59.3634 65.0596 59.1283C65.0596 58.8931 64.9661 58.6675 64.7998 58.5013C64.6336 58.335 64.408 58.2415 64.1728 58.2415ZM71.1133 58.2415H67.7197C67.4845 58.2415 67.259 58.335 67.0927 58.5013C66.9264 58.6675 66.833 58.8931 66.833 59.1283C66.833 59.3634 66.9264 59.589 67.0927 59.7552C67.259 59.9215 67.4845 60.015 67.7197 60.015H71.1133C71.3485 60.015 71.574 59.9215 71.7403 59.7552C71.9066 59.589 72 59.3634 72 59.1283C72 58.8931 71.9066 58.6675 71.7403 58.5013C71.574 58.335 71.3485 58.2415 71.1133 58.2415ZM57.0792 58.2415H53.5324C53.2972 58.2415 53.0717 58.335 52.9054 58.5013C52.7391 58.6675 52.6457 58.8931 52.6457 59.1283C52.6457 59.3634 52.7391 59.589 52.9054 59.7552C53.0717 59.9215 53.2972 60.015 53.5324 60.015H57.0792C57.3144 60.015 57.5399 59.9215 57.7062 59.7552C57.8725 59.589 57.9659 59.3634 57.9659 59.1283C57.9659 58.8931 57.8725 58.6675 57.7062 58.5013C57.5399 58.335 57.3144 58.2415 57.0792 58.2415ZM48.1244 65.8672C47.4189 66.6392 46.5391 67.2315 45.5583 67.5947C45.3434 67.6803 45.1704 67.8464 45.0762 68.0576C44.982 68.2689 44.9741 68.5086 45.054 68.7256C45.134 68.9426 45.2956 69.1199 45.5043 69.2195C45.713 69.3192 45.9524 69.3333 46.1714 69.2591C47.4183 68.7974 48.5368 68.0445 49.4338 67.0631C49.5124 66.9772 49.5732 66.8766 49.6128 66.7671C49.6525 66.6576 49.6702 66.5414 49.6649 66.425C49.6596 66.3087 49.6315 66.1946 49.5821 66.0891C49.5328 65.9837 49.4631 65.889 49.3771 65.8104C49.2911 65.7319 49.1905 65.6711 49.081 65.6314C48.9715 65.5918 48.8553 65.5741 48.739 65.5794C48.6227 65.5846 48.5085 65.6128 48.4031 65.6622C48.2976 65.7115 48.2029 65.7812 48.1244 65.8672ZM50.7191 58.9751C50.484 58.9751 50.2584 59.0685 50.0921 59.2348C49.9258 59.4011 49.8324 59.6266 49.8324 59.8618V61.4634C49.8324 62.0384 49.7579 62.6081 49.6112 63.1568C49.581 63.2692 49.5733 63.3865 49.5885 63.502C49.6037 63.6174 49.6415 63.7287 49.6997 63.8295C49.7579 63.9304 49.8354 64.0187 49.9278 64.0896C50.0202 64.1605 50.1256 64.2124 50.2381 64.2425C50.3152 64.2634 50.3922 64.2733 50.468 64.2733C50.6631 64.2732 50.8528 64.2086 51.0075 64.0897C51.1623 63.9708 51.2735 63.8042 51.3239 63.6156C51.5114 62.9136 51.6061 62.19 51.6056 61.4634V59.8618C51.6058 59.3721 51.2088 58.9751 50.7191 58.9751ZM42.3717 67.9953H40.4039C39.9384 67.9953 39.474 67.9463 39.0235 67.8494C38.9097 67.8246 38.792 67.8224 38.6774 67.8432C38.5627 67.864 38.4533 67.9072 38.3554 67.9704C38.2575 68.0336 38.173 68.1155 38.1069 68.2115C38.0408 68.3075 37.9943 68.4155 37.9701 68.5295C37.9206 68.7594 37.9645 68.9995 38.092 69.1971C38.2196 69.3946 38.4203 69.5334 38.6502 69.5829C39.2265 69.7066 39.8143 69.7689 40.4037 69.7687H42.3715C42.6067 69.7687 42.8322 69.6753 42.9985 69.5091C43.1648 69.3428 43.2583 69.1173 43.2583 68.8821C43.2583 68.6469 43.1649 68.4214 42.9987 68.2551C42.8324 68.0888 42.6069 67.9953 42.3717 67.9953ZM64.463 33.9745C64.7293 33.9745 64.9848 33.8687 65.1731 33.6804C65.3614 33.492 65.4672 33.2366 65.4672 32.9703C65.4672 32.704 65.3614 32.4485 65.1731 32.2602C64.9848 32.0719 64.7293 31.9661 64.463 31.9661C64.1967 31.9661 63.9413 32.0719 63.7529 32.2602C63.5646 32.4485 63.4588 32.704 63.4588 32.9703C63.4588 33.2366 63.5646 33.492 63.7529 33.6804C63.9413 33.8687 64.1967 33.9745 64.463 33.9745Z" fill="white"/>
</svg>
