<svg width="18" height="18" viewBox="0 0 18 18" fill="none" xmlns="http://www.w3.org/2000/svg">
<path d="M16.3438 3.3125C17.1875 4.15625 17.1875 5.5 16.375 6.3125L6.5 16.25L1.84375 17C1.34375 17.0938 0.90625 16.6562 1 16.1562L1.75 11.5L11.6875 1.625C12.5 0.8125 13.8438 0.8125 14.6562 1.625L16.3438 3.3125ZM7.25 10.75C6.96875 10.4688 6.96875 10.0625 7.25 9.78125L10.9688 6.0625L10.0625 5.15625L4.75 10.4375H6.0625V11.9375H7.5625V13.25L12.8438 7.9375L11.9375 7.03125L8.21875 10.75C8.09375 10.875 7.90625 10.9375 7.75 10.9375C7.5625 10.9375 7.375 10.875 7.25 10.75ZM3.5625 15.3438L5.84375 14.9375L6.4375 14.375V13.0625H4.9375V11.5625H3.625L3.0625 12.1562L2.65625 14.4375L3.5625 15.3438ZM15.4062 5.34375C15.6875 5.0625 15.6875 4.59375 15.375 4.28125L13.6875 2.59375C13.4062 2.3125 12.9375 2.3125 12.6562 2.59375L11.125 4.125L13.875 6.875L15.4062 5.34375Z" fill="#F009BD"/>
</svg>
