<svg width="18" height="18" viewBox="0 0 18 18" fill="none" xmlns="http://www.w3.org/2000/svg">
<path d="M14.75 1.21875C15.8125 0.59375 17.1562 1.5 16.9688 2.75L15.125 14.8438C15.0312 15.3125 14.7812 15.6875 14.375 15.9375C14.125 16.0625 13.875 16.125 13.625 16.125C13.4375 16.125 13.25 16.0938 13.0625 16L9.5625 14.5625L8.1875 16.4062C7.34375 17.5625 5.5 16.9688 5.5 15.5V12.875L1.90625 11.4062C0.75 10.9375 0.65625 9.34375 1.75 8.71875L14.75 1.21875ZM7 15.5L8.125 13.9688L7 13.5V15.5ZM13.625 14.625L15.5 2.5L2.5 10L5.84375 11.4062L12.4688 5.65625C12.9062 5.25 13.5312 5.8125 13.2188 6.3125L8.8125 12.625L13.625 14.625Z" fill="#B2B3C2"/>
</svg>
