<svg width="13" height="10" viewBox="0 0 13 10" fill="none" xmlns="http://www.w3.org/2000/svg">
<path fill-rule="evenodd" clip-rule="evenodd" d="M7.78702 0.161046C7.57929 0.375774 7.57929 0.723925 7.78702 0.938654L11.7158 4.99996L7.78702 9.06131C7.57929 9.27605 7.57929 9.62421 7.78702 9.83895C7.99472 10.0537 8.33152 10.0537 8.53924 9.83895L12.8442 5.38882C12.944 5.28566 13 5.14578 13 4.99996C13 4.85414 12.944 4.71433 12.8442 4.61118L8.53924 0.161046C8.33152 -0.053682 7.99472 -0.053682 7.78702 0.161046Z" fill="#B2B3C2"/>
<path fill-rule="evenodd" clip-rule="evenodd" d="M13 4.99996C13 4.6963 12.7619 4.45011 12.4681 4.45011H5.85816C5.5644 4.45011 5.32624 4.6963 5.32624 4.99996C5.32624 5.30363 5.5644 5.54981 5.85816 5.54981H12.4681C12.7619 5.54981 13 5.30363 13 4.99996Z" fill="#B2B3C2"/>
<path fill-rule="evenodd" clip-rule="evenodd" d="M3.53191 4.99996C3.53191 4.6963 3.29376 4.45011 3 4.45011H0.531915C0.238156 4.45011 0 4.6963 0 4.99996C0 5.30363 0.238156 5.54981 0.531915 5.54981H3C3.29376 5.54981 3.53191 5.30363 3.53191 4.99996Z" fill="#B2B3C2"/>
</svg>
