<svg width="26" height="18" viewBox="0 0 26 18" fill="none" xmlns="http://www.w3.org/2000/svg">
<path d="M0 16.875C0 17.4971 0.5824 18 1.3 18H18.2C18.9176 18 19.5 17.4971 19.5 16.875C19.5 16.2529 18.9176 15.75 18.2 15.75H1.3C0.5824 15.75 0 16.2529 0 16.875ZM24.7 10.125H1.3C0.5824 10.125 0 9.62212 0 9C0 8.37788 0.5824 7.875 1.3 7.875H24.7C25.4176 7.875 26 8.37788 26 9C26 9.62212 25.4176 10.125 24.7 10.125ZM13 2.25H1.3C0.5824 2.25 0 1.74713 0 1.125C0 0.502874 0.5824 0 1.3 0H13C13.7176 0 14.3 0.502874 14.3 1.125C14.3 1.74713 13.7176 2.25 13 2.25Z" fill="#B2B3C2"/>
</svg>
